<?xml version="1.0" encoding="utf-8"?>
<!-- Generator: Adobe Illustrator 28.0.0, SVG Export Plug-In . SVG Version: 6.00 Build 0)  -->
<svg version="1.1" id="图层_1" xmlns="http://www.w3.org/2000/svg" xmlns:xlink="http://www.w3.org/1999/xlink" x="0px" y="0px"
	 viewBox="0 0 129 129" style="enable-background:new 0 0 129 129;" xml:space="preserve">
<style type="text/css">
	.st0{fill:#00A0E9;}
	.st1{fill:#DA4453;}
	.st2{fill:#434A54;}
	.st3{fill:#E6E9ED;}
	.st4{fill:#ED5564;}
	.st5{fill:#FFCE54;}
	.st6{fill:#F6BB42;}
	.st7{fill:#656D78;}
	.st8{opacity:0.2;fill:#FFFFFF;enable-background:new    ;}
</style>
<circle class="st0" cx="64.5" cy="64.5" r="64.5"/>
<path class="st1" d="M58.76,71.57c-0.64-0.21-1.34,0.01-1.74,0.54l-9.36,12.47c-0.2,0.27-0.31,0.6-0.31,0.94l0,12.47
	c0,0.86,0.7,1.56,1.56,1.56l9.35,0c0.86,0,1.56-0.7,1.56-1.56l0-24.95C59.82,72.38,59.39,71.78,58.76,71.57z M81.34,84.59
	l-9.36-12.47c-0.4-0.54-1.1-0.75-1.74-0.54c-0.64,0.21-1.07,0.81-1.07,1.48l0,24.95c0,0.86,0.7,1.56,1.56,1.56l9.36,0
	c0.86,0,1.56-0.7,1.56-1.56l0-12.47C81.65,85.19,81.54,84.86,81.34,84.59z"/>
<path class="st2" d="M59.05,39.02c-0.48-0.28-1.06-0.29-1.55-0.02l-6.24,3.46c-0.5,0.27-0.8,0.8-0.8,1.36l0,9.01
	c0,0.54,0.28,1.04,0.74,1.32c0.25,0.15,0.53,0.23,0.82,0.23c0.24,0,0.48-0.06,0.7-0.16l6.24-3.12c0.53-0.26,0.86-0.8,0.86-1.39
	l0-9.36C59.82,39.81,59.53,39.3,59.05,39.02z M77.73,42.45l-6.24-3.46c-0.48-0.27-1.07-0.26-1.55,0.02
	c-0.48,0.28-0.77,0.79-0.77,1.34l0,9.36c0,0.59,0.33,1.13,0.86,1.39l6.24,3.12c0.22,0.11,0.46,0.16,0.7,0.16
	c0.29,0,0.57-0.08,0.82-0.23c0.46-0.28,0.74-0.79,0.74-1.33l0-9.01C78.53,43.25,78.22,42.73,77.73,42.45z"/>
<path class="st3" d="M70.26,22.84c-1.62-4.75-3.55-7.16-5.76-7.16c-2.21,0-4.15,2.41-5.77,7.16c-1.23,3.63-2.03,8.06-2.03,11.28
	l0,77.64c0,0.41,0.16,0.81,0.46,1.1c0.29,0.29,0.69,0.46,1.1,0.46l12.47,0c0.86,0,1.56-0.7,1.56-1.56l0-77.64
	C72.3,30.9,71.5,26.47,70.26,22.84z"/>
<path class="st4" d="M72.3,34.12c0-3.22-0.8-7.65-2.03-11.28c-1.62-4.75-3.55-7.16-5.76-7.16c-2.21,0-4.15,2.41-5.77,7.16
	c-1.23,3.63-2.03,8.06-2.03,11.28C56.7,34.12,72.3,34.12,72.3,34.12z"/>
<path class="st5" d="M72.3,111.76v-1.56H56.7l0,1.56c0,0.41,0.16,0.81,0.46,1.1c0.29,0.29,0.69,0.46,1.1,0.46l12.47,0
	C71.6,113.32,72.3,112.62,72.3,111.76z"/>
<path class="st6" d="M66.06,113.32h-3.12l0-3.12l3.12,0L66.06,113.32z"/>
<path class="st4" d="M64.5,99.56c-0.86,0-1.56-0.7-1.56-1.56l0-24.95c0-0.86,0.7-1.56,1.56-1.56c0.86,0,1.56,0.7,1.56,1.56l0,24.95
	C66.06,98.86,65.36,99.55,64.5,99.56z"/>
<path class="st7" d="M64.5,38.8c-0.86,0-1.56,0.7-1.56,1.56l0,12.47c0,0.86,0.7,1.56,1.56,1.56c0.86,0,1.56-0.7,1.56-1.56V40.36
	C66.06,39.5,65.36,38.8,64.5,38.8z"/>
<path class="st8" d="M70.26,22.84c-1.62-4.75-3.55-7.16-5.76-7.16c-0.26,0-0.53,0.03-0.78,0.1c1.89,0.51,3.56,2.87,4.99,7.06
	c1.23,3.63,2.03,8.06,2.03,11.28l0,77.64c0,0.86-0.7,1.56-1.56,1.56l-6.24,0l-4.68,0l0,0l12.47,0c0.86,0,1.56-0.7,1.56-1.56l0-77.64
	C72.3,30.9,71.5,26.47,70.26,22.84z"/>
</svg>
